<?xml version="1.0" standalone="no"?><!DOCTYPE svg PUBLIC "-//W3C//DTD SVG 1.1//EN" "http://www.w3.org/Graphics/SVG/1.1/DTD/svg11.dtd"><svg t="1527240677707" class="icon" style="" viewBox="0 0 1024 1024" version="1.1" xmlns="http://www.w3.org/2000/svg" p-id="1137" xmlns:xlink="http://www.w3.org/1999/xlink" width="200" height="200"><defs><style type="text/css"></style></defs><path d="M712.481 502.14l-25.574-18.7 18.34-25.767c15.83-22.32 24.208-49.199 24.208-77.639 0-69.347-50.73-125.777-113.09-125.777h-38.74V138.928H538.62v115.328h-94.975V138.928h-39.002v115.328H299.437v17.43c34.95 17.713 56.578 50.899 56.578 93.597V626.19c0 43.015-21.97 75.195-56.578 89.945v12.683h105.206v108.63h39.002v-108.63h94.975v108.63h39.006v-108.63h72.297c62.363 0 113.09-55.488 113.09-123.72 0.083-41.407-18.783-79.918-50.532-102.959z m-49.34-109.53c0 33.99-17.014 63.877-42.751 82.319H426.444V291.153h135.184c55.96 0 101.513 45.526 101.513 101.457zM595.3 696.15H426.444V501.447H635.39c36.073 15.583 61.422 51.452 61.422 93.19 0 55.986-45.552 101.511-101.513 101.511z" p-id="1138" fill="#B4B3B3"></path></svg>